<svg id="Capa_1" data-name="Capa 1" xmlns="http://www.w3.org/2000/svg" viewBox="0 0 504.87 87.46"><defs><style>.cls-1{fill:#fff;}.cls-2{fill:#a0be37;}.cls-3{fill:#db8f1b;}</style></defs><title>logo</title><path class="cls-1" d="M101.77,54a13,13,0,0,0,1.53,4.4,13.14,13.14,0,0,0,6.85,5.86,13.82,13.82,0,0,0,10.24-.3,11.17,11.17,0,0,0,4-3,3.37,3.37,0,0,1,1.64-.78,3.47,3.47,0,0,1,1.51.11,2.94,2.94,0,0,1,1.47,1.3,3.27,3.27,0,0,1,.59,2.08,3,3,0,0,1-1.13,2.16A17.48,17.48,0,0,1,126,67.93a16.77,16.77,0,0,1-3,1.68,20.07,20.07,0,0,1-3.7,1.13,21.66,21.66,0,0,1-4.41.42A19.88,19.88,0,0,1,107,69.61,20,20,0,0,1,96.32,59a20.24,20.24,0,0,1,0-15.63A20.09,20.09,0,0,1,100.63,37,20.4,20.4,0,0,1,107,32.68a20.26,20.26,0,0,1,15.59,0A20,20,0,0,1,129,36.93a20.6,20.6,0,0,1,4.31,6.32A19.55,19.55,0,0,1,134.93,51a2.93,2.93,0,0,1-.86,2.18,3.1,3.1,0,0,1-2.25.84Zm26.69-5.29a12.76,12.76,0,0,0-1.54-4.56,13.89,13.89,0,0,0-3-3.68,13.65,13.65,0,0,0-9-3.32,13.29,13.29,0,0,0-4.9.9,13.65,13.65,0,0,0-4,2.46,13.3,13.3,0,0,0-2.92,3.68,13.09,13.09,0,0,0-1.49,4.52Z" transform="translate(-1.86 -2.51)"/><path class="cls-1" d="M147.29,67.59a3,3,0,0,1-.93,2.21,3.09,3.09,0,0,1-2.23.9,3,3,0,0,1-2.22-.9,3,3,0,0,1-.93-2.21V20a2.94,2.94,0,0,1,.93-2.23,3.07,3.07,0,0,1,2.22-.88,3.11,3.11,0,0,1,2.23.88,2.94,2.94,0,0,1,.93,2.23Z" transform="translate(-1.86 -2.51)"/><path class="cls-1" d="M160.36,54a13,13,0,0,0,1.53,4.4,13.14,13.14,0,0,0,6.85,5.86A13.82,13.82,0,0,0,179,64a11.17,11.17,0,0,0,4-3,3.37,3.37,0,0,1,1.64-.78,3.45,3.45,0,0,1,1.51.11,2.94,2.94,0,0,1,1.47,1.3,3.27,3.27,0,0,1,.59,2.08,3,3,0,0,1-1.13,2.16,17.48,17.48,0,0,1-2.46,2.11,16.77,16.77,0,0,1-3.05,1.68,20.07,20.07,0,0,1-3.7,1.13,21.59,21.59,0,0,1-4.41.42,19.88,19.88,0,0,1-7.82-1.55A20,20,0,0,1,154.91,59a20.24,20.24,0,0,1,0-15.63A20.09,20.09,0,0,1,159.22,37a20.4,20.4,0,0,1,6.39-4.29,20.26,20.26,0,0,1,15.59,0,19.87,19.87,0,0,1,6.37,4.27,20.43,20.43,0,0,1,4.31,6.32A19.38,19.38,0,0,1,193.52,51a2.93,2.93,0,0,1-.86,2.18,3.1,3.1,0,0,1-2.25.84Zm26.69-5.29a12.76,12.76,0,0,0-1.54-4.56,13.89,13.89,0,0,0-3-3.68,13.65,13.65,0,0,0-9-3.32,13.23,13.23,0,0,0-4.89.9,13.57,13.57,0,0,0-4.06,2.46,13.3,13.3,0,0,0-2.92,3.68,13.09,13.09,0,0,0-1.49,4.52Z" transform="translate(-1.86 -2.51)"/><path class="cls-1" d="M203.52,51.15l.09.09a13.28,13.28,0,0,0,1,5,13.87,13.87,0,0,0,6.88,7.32,12.18,12.18,0,0,0,5.17,1.19,14.31,14.31,0,0,0,4.87-.73,12.76,12.76,0,0,0,4.37-2.59c.34-.25.69-.49,1.06-.73a3.59,3.59,0,0,1,1.17-.51,3,3,0,0,1,1.33,0,3.33,3.33,0,0,1,1.45.82,2.8,2.8,0,0,1,1,2.29,3.65,3.65,0,0,1-1.13,2.5,16.52,16.52,0,0,1-6.12,4,20.8,20.8,0,0,1-7.46,1.36,19.86,19.86,0,0,1-7.79-1.53,20,20,0,0,1-10.68-10.51,19.13,19.13,0,0,1-1.58-7.76l.09-.16a.12.12,0,0,1,0-.09l-.05,0a19.59,19.59,0,0,1,1.58-7.82A20.09,20.09,0,0,1,203,36.88a20.57,20.57,0,0,1,6.37-4.28A19.37,19.37,0,0,1,217.18,31a20.85,20.85,0,0,1,7.49,1.37,16.55,16.55,0,0,1,6.09,4,3.69,3.69,0,0,1,1.13,2.52,2.8,2.8,0,0,1-1,2.31,3.33,3.33,0,0,1-1.45.82,3,3,0,0,1-1.33,0,3.41,3.41,0,0,1-1.17-.52l-1.06-.76a12.76,12.76,0,0,0-4.35-2.56,14,14,0,0,0-4.89-.76,12.12,12.12,0,0,0-5.11,1.18,13.63,13.63,0,0,0-4.14,3,14.24,14.24,0,0,0-2.77,4.33,13.06,13.06,0,0,0-1,5.09S203.58,51.1,203.52,51.15Z" transform="translate(-1.86 -2.51)"/><path class="cls-1" d="M241.94,51.15l.08.09a13.1,13.1,0,0,0,1,5,13.8,13.8,0,0,0,6.87,7.32,12.22,12.22,0,0,0,5.17,1.19,14.37,14.37,0,0,0,4.88-.73,12.76,12.76,0,0,0,4.37-2.59c.34-.25.69-.49,1.05-.73a3.64,3.64,0,0,1,1.18-.51,2.94,2.94,0,0,1,1.32,0,3.27,3.27,0,0,1,1.45.82,2.81,2.81,0,0,1,1,2.29,3.7,3.7,0,0,1-1.14,2.5,16.48,16.48,0,0,1-6.11,4,20.84,20.84,0,0,1-7.46,1.36,20,20,0,0,1-7.8-1.53,20.16,20.16,0,0,1-6.36-4.23,19.75,19.75,0,0,1-4.31-6.28,19.13,19.13,0,0,1-1.58-7.76l.08-.16a.18.18,0,0,1,0-.09l0,0a19.59,19.59,0,0,1,1.58-7.82,19.92,19.92,0,0,1,4.31-6.37,20.64,20.64,0,0,1,6.36-4.28A19.46,19.46,0,0,1,255.6,31a20.76,20.76,0,0,1,7.48,1.37,16.55,16.55,0,0,1,6.09,4,3.75,3.75,0,0,1,1.14,2.52,2.81,2.81,0,0,1-1,2.31,3.27,3.27,0,0,1-1.45.82,2.94,2.94,0,0,1-1.32,0,3.46,3.46,0,0,1-1.18-.52l-1.05-.76A12.86,12.86,0,0,0,260,38.17a14.09,14.09,0,0,0-4.9-.76,12.08,12.08,0,0,0-5.1,1.18,13.4,13.4,0,0,0-4.14,3A14.27,14.27,0,0,0,243,45.94,13.24,13.24,0,0,0,242,51S242,51.1,241.94,51.15Z" transform="translate(-1.86 -2.51)"/><path class="cls-1" d="M276.89,19.4a3.75,3.75,0,0,1,5.25,0,3.73,3.73,0,0,1,0,5.23,3.7,3.7,0,0,1-6.32-2.6A3.54,3.54,0,0,1,276.89,19.4Zm5.78,48.15a3.06,3.06,0,0,1-.91,2.22,3,3,0,0,1-2.2.93,3.1,3.1,0,0,1-2.25-.93,3,3,0,0,1-.95-2.22V34.26a3.18,3.18,0,0,1,3.2-3.2,2.92,2.92,0,0,1,2.22.93,3.15,3.15,0,0,1,.89,2.27Z" transform="translate(-1.86 -2.51)"/><path class="cls-1" d="M290.21,43.34A20.09,20.09,0,0,1,294.52,37a20.4,20.4,0,0,1,6.39-4.29,20.09,20.09,0,0,1,15.57,0,20,20,0,0,1,10.63,10.66,20.07,20.07,0,0,1,0,15.61,20.17,20.17,0,0,1-10.63,10.68,20.09,20.09,0,0,1-15.57,0A20.25,20.25,0,0,1,290.21,59a20.07,20.07,0,0,1,0-15.61Zm5.84,13.11A14.16,14.16,0,0,0,299,60.8a13.81,13.81,0,0,0,4.35,3,13.71,13.71,0,0,0,10.76,0,13.74,13.74,0,0,0,4.36-3,13.93,13.93,0,0,0,2.9-4.35,13.44,13.44,0,0,0,1.05-5.3,13.63,13.63,0,0,0-3.95-9.7,13.82,13.82,0,0,0-4.36-2.93,14.06,14.06,0,0,0-10.76,0,13.64,13.64,0,0,0-7.27,7.28A13.49,13.49,0,0,0,295,51.15,13.28,13.28,0,0,0,296.05,56.45ZM320.28,18a3,3,0,0,0,0-4.46,3.12,3.12,0,0,0-2.26-.9,3.26,3.26,0,0,0-2.28.95l-6.47,6.55a3,3,0,0,0-.94,2.25,3.22,3.22,0,0,0,.94,2.25,3,3,0,0,0,2.23.93,3.12,3.12,0,0,0,2.27-1Z" transform="translate(-1.86 -2.51)"/><path class="cls-1" d="M368.49,69.86a3.14,3.14,0,0,1-2.27.88,3,3,0,0,1-2.2-.88,3,3,0,0,1-.91-2.23V50.57A19.57,19.57,0,0,0,362.4,45a12,12,0,0,0-2.06-4.14,8.76,8.76,0,0,0-3.3-2.59,10.53,10.53,0,0,0-4.39-.88,10.72,10.72,0,0,0-4.48,1,11.34,11.34,0,0,0-3.63,2.6A13,13,0,0,0,342,44.87a13.65,13.65,0,0,0-1,4.86V67.55a3,3,0,0,1-.9,2.22,3,3,0,0,1-2.21.93,3.09,3.09,0,0,1-2.24-.93,3,3,0,0,1-.95-2.22V34.26a3.18,3.18,0,0,1,3.19-3.2,2.94,2.94,0,0,1,2.23.93,3.14,3.14,0,0,1,.88,2.27v3.15a19.09,19.09,0,0,1,5.62-4.6,14,14,0,0,1,6.74-1.7,15.35,15.35,0,0,1,6.6,1.38A14.73,14.73,0,0,1,365,36.42a18.43,18.43,0,0,1,3.25,6.1,25.37,25.37,0,0,1,1.16,7.88V67.63A2.94,2.94,0,0,1,368.49,69.86Z" transform="translate(-1.86 -2.51)"/><path class="cls-2" d="M383.71,36.61a20.13,20.13,0,0,1,6.22-4,20.07,20.07,0,0,1,15.32.1,20,20,0,0,1,10.63,10.66,20.07,20.07,0,0,1,0,15.61,20.57,20.57,0,0,1-4.28,6.37,20.22,20.22,0,0,1-6.35,4.31,20.19,20.19,0,0,1-15.32.12,19.72,19.72,0,0,1-6.22-4V81.8a3,3,0,0,1-.93,2.2,3.18,3.18,0,0,1-4.45,0,3,3,0,0,1-.93-2.2V34.22a2.94,2.94,0,0,1,.93-2.23,3.25,3.25,0,0,1,4.45,0,2.94,2.94,0,0,1,.93,2.23Zm1.11,19.84a14.16,14.16,0,0,0,2.92,4.35,13.81,13.81,0,0,0,4.35,3,13.71,13.71,0,0,0,10.76,0,13.7,13.7,0,0,0,7.25-7.31,13.45,13.45,0,0,0,1.06-5.3,13.66,13.66,0,0,0-1.06-5.35,13.27,13.27,0,0,0-2.9-4.35,13.91,13.91,0,0,0-15.11-2.93,13.64,13.64,0,0,0-7.27,7.28,13.49,13.49,0,0,0-1.07,5.35A13.28,13.28,0,0,0,384.82,56.45Z" transform="translate(-1.86 -2.51)"/><path class="cls-2" d="M429.82,67.59a3,3,0,0,1-.93,2.21,3.2,3.2,0,0,1-4.45,0,3,3,0,0,1-.93-2.21V20a2.94,2.94,0,0,1,.93-2.23,3.25,3.25,0,0,1,4.45,0,2.94,2.94,0,0,1,.93,2.23Z" transform="translate(-1.86 -2.51)"/><path class="cls-2" d="M438.79,32a3.06,3.06,0,0,1,2.25-.91,3.1,3.1,0,0,1,2.23.91,3,3,0,0,1,.92,2.24V51.47q.09,6.12,2.8,9.52a9.18,9.18,0,0,0,7.63,3.4,10.7,10.7,0,0,0,4.47-.94,11.59,11.59,0,0,0,3.64-2.58,12.73,12.73,0,0,0,2.5-3.91,13.83,13.83,0,0,0,1-4.91V34.3a3,3,0,0,1,.92-2.25,3,3,0,0,1,2.21-.9,3.1,3.1,0,0,1,2.23.9,3,3,0,0,1,.94,2.25V67.59a3,3,0,0,1-.94,2.23,3.12,3.12,0,0,1-2.27.92,2.94,2.94,0,0,1-2.22-.93,3.17,3.17,0,0,1-.87-2.24V64.44A19.39,19.39,0,0,1,460.65,69a14.16,14.16,0,0,1-6.71,1.69,15.36,15.36,0,0,1-6.62-1.39,14.29,14.29,0,0,1-5.06-4A18.43,18.43,0,0,1,439,59.24a25.77,25.77,0,0,1-1.13-7.92V34.22A3.05,3.05,0,0,1,438.79,32Z" transform="translate(-1.86 -2.51)"/><path class="cls-2" d="M487.25,51.55a17.88,17.88,0,0,1-4-2.27,11.27,11.27,0,0,1-2.82-3.08A8,8,0,0,1,479.37,42a9.33,9.33,0,0,1,1.14-4.64,10.79,10.79,0,0,1,3-3.45,13.7,13.7,0,0,1,4.27-2.14,16.6,16.6,0,0,1,4.91-.74,18.52,18.52,0,0,1,3.62.36,15.68,15.68,0,0,1,3.4,1.07,11.79,11.79,0,0,1,2.88,1.81,8.46,8.46,0,0,1,2,2.52,3,3,0,0,1,.34,1.77,2.64,2.64,0,0,1-.67,1.38,3,3,0,0,1-1.48.86,2.35,2.35,0,0,1-1.72-.19,18.21,18.21,0,0,0-3.59-2.9,8.51,8.51,0,0,0-4.39-1.09,13.64,13.64,0,0,0-2.72.27,7.52,7.52,0,0,0-2.35.91,5,5,0,0,0-1.66,1.62,4.32,4.32,0,0,0-.63,2.37,4.1,4.1,0,0,0,.61,2.29,5.6,5.6,0,0,0,1.68,1.64,12.73,12.73,0,0,0,2.48,1.22c.94.35,2,.69,3.05,1,1.76.56,3.44,1.15,5,1.77A18,18,0,0,1,502.78,52a10.4,10.4,0,0,1,2.88,3.16,8.65,8.65,0,0,1,1.07,4.47,10.08,10.08,0,0,1-1.05,4.58,11.18,11.18,0,0,1-2.92,3.66,14.07,14.07,0,0,1-4.39,2.44,16.26,16.26,0,0,1-5.42.88,21.47,21.47,0,0,1-4.21-.42,17.56,17.56,0,0,1-3.95-1.28,14.77,14.77,0,0,1-3.38-2.17A10,10,0,0,1,479,64.18a3.11,3.11,0,0,1-.4-2.48,2.88,2.88,0,0,1,1.28-1.63,3.15,3.15,0,0,1,2.17-.36,3.62,3.62,0,0,1,2.25,1.45,8.8,8.8,0,0,0,3.51,3.36,11.42,11.42,0,0,0,5.19,1,9.88,9.88,0,0,0,2.83-.4A8.28,8.28,0,0,0,498.22,64a5.86,5.86,0,0,0,1.72-1.79,4.4,4.4,0,0,0,.66-2.39,4.17,4.17,0,0,0-.76-2.51,6.81,6.81,0,0,0-2-1.78,13.51,13.51,0,0,0-2.79-1.28q-1.56-.52-3.15-1C490.3,52.77,488.75,52.18,487.25,51.55Z" transform="translate(-1.86 -2.51)"/><path class="cls-3" d="M1.86,4.59A4.35,4.35,0,0,1,6,2.51q31.28.06,62.55,0a6.72,6.72,0,0,1,1.74.16,2.82,2.82,0,0,1,2.27,2.79A2.81,2.81,0,0,1,70.5,8.44a8.17,8.17,0,0,1-2.43.24q-28.8,0-57.61,0H8v2.07q0,35.33,0,70.65c0,1.58.38,2.09,2,2.09q34-.07,68,0c1.55,0,2.11-.33,2.1-2-.09-9.1,0-18.21,0-27.31a13.93,13.93,0,0,1,.06-1.94A2.89,2.89,0,0,1,83,49.68a3,3,0,0,1,3,2.43,9.2,9.2,0,0,1,.07,1.58V85.58c0,3.42-1,4.37-4.41,4.37Q44,90,6.29,90c-2,0-3.73-.35-4.43-2.55Z" transform="translate(-1.86 -2.51)"/><path class="cls-2" d="M19.25,71.88H68.74c0-.7.09-1.32.09-1.94,0-4.46,0-8.93,0-13.39,0-2.51,1.91-4,4-3.27a3,3,0,0,1,2.07,3.14c0,6.11,0,12.22,0,18.33,0,2.36-1.7,3.73-4.37,3.73h-53c-3,0-4.46-1.38-4.46-4.35V17.92C13.06,15,14.05,14,17,14H63.7c1.51,0,2.81.31,3.57,1.75a2.92,2.92,0,0,1-.63,3.57,4.67,4.67,0,0,1-2.91,1.1c-6.35.1-12.69.05-19,.05H19.25Z" transform="translate(-1.86 -2.51)"/><path class="cls-1" d="M86.09,9.3v1.19c0,4.26,0,8.53,0,12.8a2.87,2.87,0,0,1-1,2.23q-13.51,13.46-27,27l-13.8,13.8c-.23.22-.46.43-.67.66s-.53.26-.79,0l-.48-.47L23.58,47.58,23,47a.51.51,0,0,1,0-.82,3.83,3.83,0,0,1,.28-.29c2.1-2.1,4.19-4.2,6.3-6.28.79-.79.86-.8,1.62,0,1.54,1.55,3,3.17,4.58,4.71,2.31,2.3,4.67,4.56,7,6.86.42.41.68.4,1.09,0,1.64-1.66,3.32-3.28,5-4.94q6.85-6.86,13.69-13.74,11.1-11.1,22.2-22.21a10.45,10.45,0,0,0,.88-1.19Z" transform="translate(-1.86 -2.51)"/></svg>